<svg xmlns="http://www.w3.org/2000/svg" width="167" height="64" viewBox="0 0 167 64">
    <g fill="#FFF" fill-rule="evenodd">
        <text font-family="OpenSans, Open Sans" font-size="16" transform="translate(-1)">
            <tspan x=".969" y="26.006">8K Workﬂow</tspan>
        </text>
        <path d="M106.632 4.909c0-.747.607-1.354 1.354-1.354h18.945c.745 0 1.352.607 1.352 1.354V18.44c0 .746-.607 1.353-1.352 1.353h-18.945a1.355 1.355 0 0 1-1.354-1.353V4.909zm1.354 17.592h18.945a4.064 4.064 0 0 0 4.059-4.06V4.909a4.064 4.064 0 0 0-4.06-4.06h-18.944a4.064 4.064 0 0 0-4.06 4.06V18.44a4.064 4.064 0 0 0 4.06 4.06zM162.114 59.037c0 .746-.607 1.353-1.354 1.353h-18.945a1.354 1.354 0 0 1-1.352-1.353V45.504c0-.746.607-1.353 1.352-1.353h18.945c.747 0 1.354.607 1.354 1.353v13.533zm-1.354-17.593h-18.945a4.065 4.065 0 0 0-4.059 4.06v13.533a4.065 4.065 0 0 0 4.06 4.06h18.944c2.24 0 4.06-1.822 4.06-4.06V45.504c0-2.238-1.82-4.06-4.06-4.06z"/>
        <path d="M144.523 17.88l-6.207-6.207 6.207-6.206 6.206 6.206-6.207 6.207zm17.591-7.559h-8.91l-7.725-7.724a1.353 1.353 0 0 0-1.914 0l-8.119 8.12a1.354 1.354 0 0 0 0 1.913l8.12 8.12a1.353 1.353 0 0 0 1.913 0l7.722-7.723h8.913c.745 0 1.353.607 1.353 1.354V26.56a4.064 4.064 0 0 1-4.059 4.06h-48.716a6.773 6.773 0 0 0-6.766 6.765v12.178a4.064 4.064 0 0 0 4.06 4.06h21.092l-5.81 5.812a1.351 1.351 0 0 0 .956 2.31c.346 0 .692-.133.956-.397l8.12-8.12a1.35 1.35 0 0 0 0-1.914l-8.12-8.12a1.353 1.353 0 0 0-1.913 1.914l5.809 5.808h-21.09a1.355 1.355 0 0 1-1.355-1.353V37.384a4.065 4.065 0 0 1 4.06-4.06h48.718a6.773 6.773 0 0 0 6.764-6.765V14.381a4.064 4.064 0 0 0-4.059-4.06zM143.169 50.916a1.353 1.353 0 1 0-.002 2.707 1.353 1.353 0 0 0 .002-2.706M143.169 56.33a1.353 1.353 0 1 0-.002 2.706 1.353 1.353 0 0 0 .002-2.706"/>
        <path d="M143.169 45.503a1.353 1.353 0 1 0-.002 2.707 1.353 1.353 0 0 0 .002-2.707M147.228 48.21a1.352 1.352 0 1 0 0 2.706 1.353 1.353 0 1 0 0-2.705M147.228 53.623a1.352 1.352 0 1 0 0 2.707 1.353 1.353 0 1 0 0-2.706M151.288 50.916a1.353 1.353 0 1 0 0 2.706 1.353 1.353 0 0 0 0-2.706M151.288 56.33a1.353 1.353 0 1 0 0 2.705 1.353 1.353 0 0 0 0-2.705M151.288 45.503a1.353 1.353 0 1 0 0 2.706 1.353 1.353 0 0 0 0-2.706M155.349 48.21a1.353 1.353 0 1 0-.002 2.707 1.353 1.353 0 0 0 .002-2.706M155.349 53.623a1.353 1.353 0 1 0-.003 2.706 1.353 1.353 0 0 0 .003-2.706M159.408 50.916a1.353 1.353 0 1 0-.002 2.707 1.353 1.353 0 0 0 .002-2.706M159.408 56.33a1.353 1.353 0 1 0-.002 2.706 1.353 1.353 0 0 0 .002-2.706M159.408 45.503a1.353 1.353 0 1 0-.002 2.707 1.353 1.353 0 0 0 .002-2.707"/>
    </g>
</svg>
