<svg xmlns="http://www.w3.org/2000/svg" width="142" height="63" viewBox="0 0 142 63">
    <g fill="#FFF" fill-rule="evenodd">
        <text font-family="OpenSans, Open Sans" font-size="16.415">
            <tspan x="13.318" y="58.15">DXL Ecosystem</tspan>
        </text>
        <path d="M59.03 4.077c-.694 0-.96.865-.385 1.236 4.82 3.11 7.865 8.597 7.317 14.726-.746 8.33-8.248 14.577-16.877 14.577H19.633c-9.23 0-17.093-7.322-16.939-16.268.15-8.696 7.495-15.725 16.502-15.725h22.105c.833 0 1.648-.244 2.335-.7.568-.377.293-1.238-.395-1.238h-23.59C9.631.685 1.085 8.222.706 17.927.307 28.13 8.757 36.554 19.196 36.554h29.83c10.441 0 19.2-8.17 18.995-18.288-.107-5.344-2.646-10.11-6.578-13.33a3.814 3.814 0 0 0-2.414-.859M122.853.685H93.025c-10.379 0-19.199 8.231-18.996 18.288.118 5.842 3.142 10.994 7.714 14.189h.11c1.03 0 1.463-1.258.646-1.865-4.17-3.1-6.777-8.079-6.445-13.625.51-8.527 8.099-15.049 16.912-15.049h29.45c9.232 0 17.094 7.32 16.94 16.267-.15 8.696-7.494 15.726-16.502 15.726h-22.105a4.23 4.23 0 0 0-2.334.7c-.57.376-.294 1.238.394 1.238h23.59c10.02 0 18.566-7.538 18.946-17.243.399-10.203-8.052-18.626-18.492-18.626"/>
        <path d="M56.3 2.623h21.669c.833 0 1.646-.244 2.334-.7.568-.377.293-1.238-.395-1.238h-23.55C45.98.685 37.16 8.916 37.364 18.973c.118 5.842 3.14 10.994 7.713 14.189h.11c1.03 0 1.463-1.258.646-1.865-4.17-3.1-6.776-8.079-6.444-13.625.51-8.527 8.099-15.049 16.912-15.049M95.695 4.077c-.692 0-.96.865-.383 1.236 4.694 3.029 7.706 8.315 7.351 14.251-.51 8.529-8.098 15.052-16.91 15.052h-21.67c-.834 0-1.648.244-2.335.7-.569.376-.293 1.238.394 1.238h23.55c10.38 0 19.198-8.232 18.996-18.288-.108-5.344-2.647-10.11-6.579-13.33a3.812 3.812 0 0 0-2.414-.859"/>
    </g>
</svg>
