<svg xmlns="http://www.w3.org/2000/svg" width="93" height="149" viewBox="0 0 93 149">
    <g fill="none" fill-rule="evenodd">
        <text fill="#3D3D3D" font-family="OpenSans-Semibold, Open Sans" font-size="44" font-weight="500" letter-spacing="-5" transform="translate(-11 1)">
            <tspan x="23.588" y="113">1</tspan> <tspan x="43.703" y="113">0</tspan> <tspan x="68.818" y="113" font-family="OpenSans-Light, Open Sans" font-size="16" font-weight="300">lbs</tspan>
        </text>
        <text fill="#3D3D3D" font-family="OpenSans-Light, Open Sans" font-size="16" font-weight="300" transform="translate(-11 1)">
            <tspan x="2.043" y="144.234">Feather Light</tspan>
        </text>
        <path stroke="#3D3D3D" stroke-linecap="round" stroke-linejoin="round" stroke-width="2" d="M27.651 32.426c-.761-1.759-.777-2.526-.66-3.02 4.085 5.97 8.114 10.297 15.145 13.724 7.844 3.822 18.599 4.082 23.33-.499-1.86 1.094-3.812.905-4.962.44-1.313-.533-2.004-1.818-3.143-2.037 1.009.187.974 1.935 1.602 2.605-6.834-1.86-11.308-9-15.722-14.032-1.924-2.193-3.357-3.128-5.007-3.383.897.84.77 3.485.406 5.494-.432-2.357-.82-3.94-1.89-5.835C33.053 19.336 22.219 19.343 17.355 1c-1.64-.055-1.423 18.231-1.205 23.926.208 5.477 1.476 8.497 3.05 10.923 1.336 2.055 3.778 2.574 4.74 2.93-1.073.16-2.976.176-3.942-.285 2.202 4.957 7.582 10.392 10.929 12.278 2.674 1.507 5.48.568 6.974.276-.571.47-3.375 1.42-4.25 1.555.474.223.79.451 1.099.682 3.435 2.547 8.475 3.152 12.767 2.434 1.451-.24 5.557-1.469 6.609-3.104-.468 1.087-1.076 2.202-.544 3.352-.438-.947 4.235-3.57 4.904-3.845 2.083-.854 4.465-2.1 6.141-4.19 3.38-2.295 6.088-5.612 7.525-8.58.667-1.367 1.162-2.793.614-3.544C65.85 51.02 50.568 49.947 41.073 45.32c-6.57-3.203-11.665-8.818-13.422-12.895z"/>
    </g>
</svg>
