<svg xmlns="http://www.w3.org/2000/svg" width="660" height="422" viewBox="0 0 660 422">
    <g fill="none" fill-rule="evenodd">
        <g transform="translate(1 123)">
            <path stroke="#3D3D3D" stroke-linecap="round" stroke-linejoin="round" stroke-width="2" d="M96.6 139.28h106.3"/>
            <circle cx="96.75" cy="139.28" r="3.01" fill="#3D3D3D" fill-rule="nonzero"/>
            <path fill="#3D3D3D" fill-rule="nonzero" d="M201.74 143.26l6.9-3.98-6.9-3.99z"/>
            <path stroke="#3D3D3D" stroke-linecap="round" stroke-linejoin="round" stroke-width="2" d="M357.08 142.22h123.2"/>
            <circle cx="357.23" cy="142.22" r="3.01" fill="#3D3D3D" fill-rule="nonzero"/>
            <path fill="#3D3D3D" fill-rule="nonzero" d="M479.12 146.21l6.9-3.99-6.9-3.98z"/>
            <path stroke="#3D3D3D" stroke-linecap="round" stroke-linejoin="round" stroke-width="2" d="M356.65 107.29l124.5-77.31"/>
            <circle cx="356.772" cy="107.199" r="3.01" fill="#3D3D3D" fill-rule="nonzero" transform="rotate(-31.84 356.772 107.199)"/>
            <path fill="#3D3D3D" fill-rule="nonzero" d="M482.26 33.98l3.76-7.03-7.97.26z"/>
            <path stroke="#3D3D3D" stroke-linecap="round" stroke-linejoin="round" stroke-width="2" d="M356.65 177.16l124.5 77.31"/>
            <circle cx="356.785" cy="177.25" r="3.01" fill="#3D3D3D" fill-rule="nonzero" transform="rotate(-58.16 356.785 177.25)"/>
            <path fill="#3D3D3D" fill-rule="nonzero" d="M478.05 257.24l7.97.26-3.76-7.04z"/>
            <text fill="#3D3D3D" font-family="OpenSans, Open Sans" font-size="14">
                <tspan x="9.65" y="135.8">ProRes</tspan>
            </text>
            <path stroke="#3D3D3D" stroke-linecap="round" stroke-linejoin="round" stroke-width="2" d="M17.94 99.69h45.25v79.17H.94v-61.88z"/>
            <path stroke="#3D3D3D" stroke-linecap="round" stroke-linejoin="round" stroke-width="2" d="M1.15 117.03h17.13V99.92M239.19 95.34h84.49v87.87h-84.49z"/>
            <path stroke="#3D3D3D" stroke-linecap="round" stroke-linejoin="round" stroke-width="2" d="M250.27 114.77h62.32v49.01h-62.32z"/>
            <path fill="#3D3D3D" fill-rule="nonzero" d="M275.86 148.29l11.58-8.12a1 1 0 0 0 0-1.65L276 130.28a1 1 0 0 0-1.61.82l-.09 16.36a1 1 0 0 0 1.6.83"/>
            <path stroke="#3D3D3D" stroke-linecap="round" stroke-linejoin="round" stroke-width="2" d="M630.91 165.76v-55.51c0-4.6-3.73-8.33-8.33-8.33h-81a8.33 8.33 0 0 0-8.33 8.33v55.51"/>
            <path stroke="#3D3D3D" stroke-linecap="round" stroke-linejoin="round" stroke-width="2" d="M543.71 155.35v-43.02h76.79v43.02h-36.11zM591.39 166.28v3.12H572v-3.12h-53.6v6.64c0 4.6 3.73 8.33 8.33 8.33h110.76c4.6 0 8.33-3.73 8.33-8.33v-6.64h-54.43z"/>
            <circle cx="581.046" cy="288.09" r="4.02" stroke="#3D3D3D" stroke-linecap="round" stroke-linejoin="round" stroke-width="2" transform="rotate(-13.25 581.046 288.09)"/>
            <path stroke="#3D3D3D" stroke-linecap="round" stroke-linejoin="round" stroke-width="2" d="M576.1 221.1h9.91M614.4 214.81h-64.59v82.33h64.59z"/>
            <path stroke="#3D3D3D" stroke-linecap="round" stroke-linejoin="round" stroke-width="2" d="M559.02 227.6h45.84v50.9h-45.84z"/>
            <path fill="#3D3D3D" fill-rule="nonzero" d="M528.81 49.16h20.83a3.24 3.24 0 0 0 3.45-2.65 4.72 4.72 0 0 0-.61-3.35c-6.78-12.247-13.56-24.49-20.34-36.73-.4-.77-.887-1.49-1.45-2.15a2.36 2.36 0 0 0-3.21-.29 4.21 4.21 0 0 0-1.32 1.56l-4.35 8.12a8649.051 8649.051 0 0 0-15.92 29.75 5.16 5.16 0 0 0-.6 3 2.72 2.72 0 0 0 3 2.76l20.52-.02zM565.5 2.94h-20.91a2.3 2.3 0 0 0-2.34 1.57 4.36 4.36 0 0 0 .26 3.84 1865.6 1865.6 0 0 1 3.84 7.14c5.467 10.187 10.94 20.357 16.42 30.51.216.41.488.787.81 1.12a2.62 2.62 0 0 0 4.08-.15c.265-.31.5-.645.7-1l18.42-33.13c.78-1.4 1.54-2.8 2.33-4.19a4.53 4.53 0 0 0 .58-3.08 3.14 3.14 0 0 0-3.24-2.61l-20.95-.02zM619 24.66v20.87a2.4 2.4 0 0 0 2 2.47 3.89 3.89 0 0 0 2.91-.44l27.38-15.78c2.08-1.2 4.17-2.36 6.21-3.61a2.91 2.91 0 0 0 .47-4.73 7.08 7.08 0 0 0-1-.76l-28.65-19-4.5-3a3 3 0 0 0-4.66 1.95 5.43 5.43 0 0 0-.12 1.17c-.027 6.98-.04 13.933-.04 20.86zm-7.43.84v-9-9a5.09 5.09 0 0 0-.68-2.53 5.76 5.76 0 0 0-5.31-3c-1.62 0-3.25 0-4.88.07a5.66 5.66 0 0 0-5.29 5.57v35.55c0 .392.03.783.09 1.17a5.66 5.66 0 0 0 5.12 4.7c1.78.09 3.56.06 5.34.05a5.31 5.31 0 0 0 2.7-.7 5.71 5.71 0 0 0 3-5.27c-.06-5.88-.087-11.75-.08-17.61h-.01zm44.57 20.83h.08c0 .11.09.22.13.33.23.68.45 1.35.7 2a.27.27 0 1 0 .54 0c.26-.7.5-1.4.74-2.1a2.33 2.33 0 0 1 .13-.25h.08v2.57h.36v-3.26c-.4-.13-.6 0-.72.39-.23.78-.52 1.55-.79 2.32a22.67 22.67 0 0 1-.86-2.29c-.18-.53-.21-.55-.76-.39v3.29h.38l-.01-2.61zm-2.43-.27v2.84h.43V46h.7c.23 0 .48 0 .35-.36h-2.63c.25.59.79.15 1.16.42h-.01z"/>
            <path fill="#3D3D3D" fill-rule="nonzero" d="M528.81 49.16h-20.53a2.72 2.72 0 0 1-3-2.76 5.16 5.16 0 0 1 .6-3c5.333-9.913 10.64-19.83 15.92-29.75l4.35-8.12A4.21 4.21 0 0 1 527.48 4a2.36 2.36 0 0 1 3.21.29c.563.66 1.05 1.38 1.45 2.15 6.787 12.24 13.567 24.483 20.34 36.73a4.72 4.72 0 0 1 .61 3.35 3.24 3.24 0 0 1-3.45 2.65h-20.83v-.01zM565.5 2.94h21a3.14 3.14 0 0 1 3.24 2.61 4.53 4.53 0 0 1-.58 3.08c-.78 1.39-1.55 2.79-2.33 4.19L568.36 46c-.2.355-.435.69-.7 1a2.62 2.62 0 0 1-4.08.15 4.89 4.89 0 0 1-.81-1.12c-5.48-10.173-10.953-20.35-16.42-30.53l-3.84-7.14a4.36 4.36 0 0 1-.26-3.84 2.3 2.3 0 0 1 2.34-1.57l20.91-.01zM619 24.66V3.88a5.43 5.43 0 0 1 .12-1.17 3 3 0 0 1 4.66-1.95c1.53.93 3 2 4.5 3l28.65 19c.355.223.69.478 1 .76a2.91 2.91 0 0 1-.47 4.73c-2 1.25-4.14 2.41-6.21 3.61l-27.37 15.69A3.89 3.89 0 0 1 621 48a2.4 2.4 0 0 1-2-2.47v-8.71-12.16zM611.58 25.5v17.59a5.71 5.71 0 0 1-3 5.27 5.31 5.31 0 0 1-2.7.7c-1.78 0-3.56 0-5.34-.05a5.66 5.66 0 0 1-5.12-4.7 7.81 7.81 0 0 1-.09-1.17V7.59A5.66 5.66 0 0 1 600.65 2c1.62-.07 3.25-.09 4.88-.07a5.76 5.76 0 0 1 5.31 3 5.09 5.09 0 0 1 .68 2.53v18l.06.04zM656.15 46.33v2.56h-.38v-3.24c.55-.15.58-.13.76.39.245.778.532 1.543.86 2.29.27-.77.56-1.54.79-2.32.12-.4.32-.52.72-.39v3.28h-.36v-2.55h-.08a2.33 2.33 0 0 0-.13.25c-.25.7-.48 1.4-.74 2.1a.27.27 0 1 1-.54 0c-.24-.67-.47-1.35-.7-2 0-.11-.08-.22-.13-.33l-.07-.04zM653.72 46.06c-.38-.27-.92.17-1.15-.46h2.63c.13.38-.12.36-.35.36h-.7v2.94h-.43v-2.84z"/>
            <text fill="#3D3D3D" font-family="OpenSans, Open Sans" font-size="14">
                <tspan x="259.93" y="200.44">2K/HD</tspan>
            </text>
        </g>
        <text fill="#3C3C3C" font-family="OpenSans, Open Sans" font-size="16" letter-spacing=".003" transform="translate(1 1)">
            <tspan x="282.879" y="368.234">Proxy</tspan>
        </text>
        <text fill="#3C3C3C" font-family="OpenSans, Open Sans" font-size="16" letter-spacing=".003" transform="translate(1 1)">
            <tspan x="287.105" y="110.234">RAW</tspan>
        </text>
        <g transform="translate(187 1)">
            <path stroke="#3D3D3D" stroke-linecap="round" stroke-linejoin="round" stroke-width="2" d="M89.41 43.47h66.36"/>
            <circle cx="89.56" cy="43.47" r="3.01" fill="#3D3D3D" fill-rule="nonzero"/>
            <path fill="#3D3D3D" fill-rule="nonzero" d="M154.61 47.46l6.91-3.99-6.91-3.99z"/>
            <text fill="#3D3D3D" font-family="OpenSans, Open Sans" font-size="14">
                <tspan x="16.61" y="38.73">R3D</tspan>
            </text>
            <path stroke="#3D3D3D" stroke-linecap="round" stroke-linejoin="round" stroke-width="2" d="M16.55 2.99h41.83v73.18H.84v-57.2z"/>
            <path stroke="#3D3D3D" stroke-linecap="round" stroke-linejoin="round" stroke-width="2" d="M1.03 19.02h15.83V3.2M197.67 43.25h24.77-24.77zm43.64-.78a3.72 3.72 0 1 0-7.244 1.698 3.72 3.72 0 0 0 7.244-1.698zm8.08-10.84h-59.7V55.3h59.7V31.63z"/>
            <path stroke="#3D3D3D" stroke-linecap="round" stroke-linejoin="round" stroke-width="2" d="M249.39 9.33h-59.7v22.31h59.7zM258.51.88h-59.7l-9.12 8.45h59.7zM249.39 55.3h-59.7v22.31h59.7z"/>
            <path stroke="#3D3D3D" stroke-linecap="round" stroke-linejoin="round" stroke-width="2" d="M258.51 69.16l-9.12 8.45V9.33l9.12-8.45z"/>
        </g>
    </g>
</svg>
