<svg xmlns="http://www.w3.org/2000/svg" width="127" height="115" viewBox="0 0 127 115">
    <g fill="none" fill-rule="evenodd">
        <path stroke="#20DAFF" stroke-linecap="round" stroke-linejoin="round" stroke-width="2" d="M39.145 67.068L79.58 36.492M22.105 1.49v75.34M29.61 70.381H11.945M94.022 70.381h-53.74M34.003 65.305C30.28 38.133 29.49 6.318 43.14 2.096c13.703-4.237 28.33 4.941 37.705 26.98"/>
        <path stroke="#20DAFF" stroke-linecap="round" stroke-linejoin="round" stroke-width="2" d="M87.782 33.269a4.737 4.737 0 1 0-9.474 0 4.737 4.737 0 0 0 9.474 0zM39.674 70.25a4.736 4.736 0 0 0-4.737-4.736 4.736 4.736 0 1 0 0 9.474 4.737 4.737 0 0 0 4.737-4.737z"/>
        <text fill="#FFF" font-family="OpenSans, Open Sans" font-size="16" transform="translate(-2 1)">
            <tspan x=".688" y="90.88">Proprietary Color</tspan>
        </text>
        <text fill="#FFF" font-family="OpenSans, Open Sans" font-size="16" transform="translate(-2 1)">
            <tspan x="15.36" y="109.632">Management</tspan>
        </text>
    </g>
</svg>
